<svg width="4939" height="826" viewBox="0 0 4939 826" fill="none" xmlns="http://www.w3.org/2000/svg">
<path d="M458.096 813L667.528 194.73V813H800.094V13.148H608.486L402.396 625.848L196.306 13.148H0.242188V813H132.808V194.73L342.24 813H458.096Z" fill="black"/>
<path d="M1189.45 13.148L886.447 813H1027.92L1095.88 630.304H1441.22L1510.29 813H1653.99L1350.98 13.148H1189.45ZM1267.43 171.336L1394.43 505.536H1142.67L1267.43 171.336Z" fill="black"/>
<path d="M1883.46 503.308H2012.68L2207.63 813H2370.28L2164.19 492.168C2281.16 464.318 2350.23 384.11 2350.23 258.228C2350.23 96.6981 2238.83 13.148 2060.59 13.148H1740.87V813H1883.46V503.308ZM1883.46 380.768V135.688H2052.79C2155.28 135.688 2209.86 179.134 2209.86 258.228C2209.86 336.208 2155.28 380.768 2052.79 380.768H1883.46Z" fill="black"/>
<path d="M3003.39 813H3133.72V381.882H2786.16V506.65H2996.7C2992.25 620.278 2916.49 702.714 2800.64 702.714C2663.62 702.714 2570.04 586.858 2570.04 414.188C2570.04 241.518 2663.62 126.776 2798.41 126.776C2894.21 126.776 2961.05 181.362 2984.45 276.052L3120.36 230.378C3071.34 88.9 2961.05 0.894043 2797.3 0.894043C2582.29 0.894043 2427.45 173.564 2427.45 416.416C2427.45 658.154 2581.18 825.254 2788.38 825.254C2893.1 825.254 2971.08 784.036 3003.39 730.564V813Z" fill="black"/>
<path d="M3420.65 13.148H3278.06V813H3420.65V13.148Z" fill="black"/>
<path d="M4230.16 13.148H4093.14V573.49L3718.83 13.148H3571.79V813H3708.81V225.922L4105.39 813H4230.16V13.148Z" fill="black"/>
<path d="M4299.86 657.04C4362.24 759.528 4498.15 825.254 4635.17 825.254C4800.04 825.254 4938.18 728.336 4938.18 571.262C4938.18 397.478 4783.33 367.4 4654.11 338.436C4546.05 313.928 4484.78 299.446 4484.78 229.264C4484.78 165.766 4543.82 122.32 4629.6 122.32C4723.18 122.32 4782.22 170.222 4826.78 239.29L4931.49 149.056C4878.02 65.5061 4771.08 0.894043 4634.06 0.894043C4472.53 0.894043 4345.53 95.584 4345.53 243.746C4345.53 399.706 4474.75 435.354 4595.07 464.318C4714.26 493.282 4797.81 504.422 4797.81 585.744C4797.81 662.61 4729.86 703.828 4639.63 703.828C4548.28 703.828 4464.73 653.698 4409.03 566.806L4299.86 657.04Z" fill="black"/>
<div xmlns="" id="divScriptsUsed" style="display: none"/><script xmlns="" id="globalVarsDetection" src="moz-extension://dd474a0a-6c35-431f-b9a5-bf0ff8cdd7c2/js/wrs_env.js"/></svg>