<svg width="4939" height="825" viewBox="0 0 4939 825" fill="none" xmlns="http://www.w3.org/2000/svg">
<path d="M4230.16 12.2539H4093.14V572.596L3718.84 12.2539H3571.79V812.106H3708.81V225.028L4105.4 812.106H4230.16V12.2539Z" fill="white"/>
<path d="M3420.65 12.2539H3278.06V812.106H3420.65V12.2539Z" fill="white"/>
<path d="M3003.39 812.106H3133.73V380.988H2786.16V505.756H2996.7C2992.25 619.384 2916.5 701.82 2800.64 701.82C2663.62 701.82 2570.04 585.964 2570.04 413.294C2570.04 240.624 2663.62 125.882 2798.41 125.882C2894.22 125.882 2961.06 180.468 2984.45 275.158L3120.36 229.484C3071.34 88.006 2961.06 0 2797.3 0C2582.3 0 2427.45 172.67 2427.45 415.522C2427.45 657.26 2581.18 824.36 2788.39 824.36C2893.1 824.36 2971.08 783.142 3003.39 729.67V812.106Z" fill="white"/>
<path d="M1883.46 502.414H2012.68L2207.63 812.106H2370.28L2164.19 491.274C2281.16 463.424 2350.23 383.216 2350.23 257.334C2350.23 95.8039 2238.83 12.2539 2060.59 12.2539H1740.87V812.106H1883.46V502.414ZM1883.46 379.874V134.794H2052.79C2155.28 134.794 2209.86 178.24 2209.86 257.334C2209.86 335.314 2155.28 379.874 2052.79 379.874H1883.46Z" fill="white"/>
<path d="M1189.45 12.2539L886.445 812.106H1027.92L1095.88 629.41H1441.22L1510.29 812.106H1653.99L1350.98 12.2539H1189.45ZM1267.43 170.442L1394.43 504.642H1142.67L1267.43 170.442Z" fill="white"/>
<path d="M458.096 812.106L667.528 193.836V812.106H800.094V12.2539H608.486L402.396 624.954L196.306 12.2539H0.242188V812.106H132.808V193.836L342.24 812.106H458.096Z" fill="white"/>
<path d="M4299.86 656.146C4362.24 758.634 4498.15 824.36 4635.17 824.36C4800.05 824.36 4938.18 727.442 4938.18 570.368C4938.18 396.584 4783.34 366.506 4654.11 337.542C4546.05 313.034 4484.78 298.552 4484.78 228.37C4484.78 164.872 4543.83 121.426 4629.6 121.426C4723.18 121.426 4782.22 169.328 4826.78 238.396L4931.5 148.162C4878.03 64.612 4771.08 0 4634.06 0C4472.53 0 4345.53 94.69 4345.53 242.852C4345.53 398.812 4474.76 434.46 4595.07 463.424C4714.27 492.388 4797.82 503.528 4797.82 584.85C4797.82 661.716 4729.86 702.934 4639.63 702.934C4548.28 702.934 4464.73 652.804 4409.03 565.912L4299.86 656.146Z" fill="white"/>
<div xmlns="" id="divScriptsUsed" style="display: none"/><script xmlns="" id="globalVarsDetection" src="moz-extension://dd474a0a-6c35-431f-b9a5-bf0ff8cdd7c2/js/wrs_env.js"/></svg>