<svg fill="none" height="838" viewBox="0 0 4951 838" width="4951" xmlns="http://www.w3.org/2000/svg"><g stroke="#000" stroke-width="12"><path d="m464.096 819 209.432-618.27v618.27h132.566v-799.8521h-191.608l-206.09 612.7001-206.09-612.7001h-196.06381v799.8521h132.56581v-618.27l209.432 618.27z"/><path d="m1197.45 19.1479-303.003 799.8521h141.473l67.96-182.696h345.34l69.07 182.696h143.7l-303.01-799.8521zm77.98 158.1881 127 334.2h-251.76z"/><path d="m1890.46 509.308h129.22l194.95 309.692h162.65l-206.09-320.832c116.97-27.85 186.04-108.058 186.04-233.94 0-161.53-111.4-245.0801-289.64-245.0801h-319.72v799.8521h142.59zm0-122.54v-245.08h169.33c102.49 0 157.07 43.446 157.07 122.54 0 77.98-54.58 122.54-157.07 122.54z"/><path d="m3012.39 819h130.33v-431.118h-347.56v124.768h210.54c-4.45 113.628-80.21 196.064-196.06 196.064-137.02 0-230.6-115.856-230.6-288.526s93.58-287.412 228.37-287.412c95.8 0 162.64 54.586 186.04 149.276l135.91-45.674c-49.02-141.478-159.31-229.48396-323.06-229.48396-215.01 0-369.85 172.66996-369.85 415.52196 0 241.738 153.73 408.838 360.93 408.838 104.72 0 182.7-41.218 215.01-94.69z"/><path d="m3427.65 19.1479h-142.59v799.8521h142.59z"/><path d="m4235.16 19.1479h-137.02v560.3421l-374.31-560.3421h-147.04v799.8521h137.02v-587.078l396.58 587.078h124.77z"/><path d="m4305.86 663.04c62.38 102.488 198.29 168.214 335.31 168.214 164.87 0 303.01-96.918 303.01-253.992 0-173.784-154.85-203.862-284.07-232.826-108.06-24.508-169.33-38.99-169.33-109.172 0-63.498 59.04-106.944 144.82-106.944 93.58 0 152.62 47.902 197.18 116.97l104.71-90.234c-53.47-83.5499-160.41-148.16196-297.43-148.16196-161.53 0-288.53 94.68996-288.53 242.85196 0 155.96 129.22 191.608 249.54 220.572 119.19 28.964 202.74 40.104 202.74 121.426 0 76.866-67.95 118.084-158.18 118.084-91.35 0-174.9-50.13-230.6-137.022z"/></g></svg>